<svg width="64" height="43" viewBox="0 0 64 43" fill="none" xmlns="http://www.w3.org/2000/svg">
<path fill-rule="evenodd" clip-rule="evenodd" d="M22 25H0V15H22V25Z" fill="#28313F"/>
<path d="M17 35H7V26H17V35ZM17 15V25H7V15H17ZM22 10C19.5811 10 17.5639 11.7178 17.1006 14H7.0342C7.5488 6.182 14.0518 0 22 0V10Z" fill="#28313F"/>
<path fill-rule="evenodd" clip-rule="evenodd" d="M25 35V0H35V35H25Z" fill="#28313F"/>
<path d="M39 27.6064C40.7091 31.7858 44.4527 34.916 49 35.7676V43H39V27.6064Z" fill="#28313F"/>
<path fill-rule="evenodd" clip-rule="evenodd" d="M51.5 20C50.1193 20 49 21.1193 49 22.5C49 23.8807 50.1193 25 51.5 25C52.8807 25 54 23.8807 54 22.5C54 21.1193 52.8807 20 51.5 20ZM39 22.5C39 15.5964 44.5964 10 51.5 10C58.4036 10 64 15.5964 64 22.5C64 29.4036 58.4036 35 51.5 35C44.5964 35 39 29.4036 39 22.5Z" fill="#28313F"/>
</svg>
